<?xml version="1.0" encoding="utf-8"?>
<!-- Generator: Adobe Illustrator 28.0.0, SVG Export Plug-In . SVG Version: 6.00 Build 0)  -->
<svg version="1.1" id="Layer_1" xmlns="http://www.w3.org/2000/svg" xmlns:xlink="http://www.w3.org/1999/xlink" x="0px" y="0px"
	 viewBox="0 0 1920 1080" style="enable-background:new 0 0 1920 1080;" xml:space="preserve">
<style type="text/css">
	.st0{fill:#C88AFF;}
	.st1{fill:none;}
	.st2{font-family:'Bauhaus93';}
	.st3{font-size:232.1395px;}
</style>
<g>
	<path class="st0" d="M946.5,855.5c-82.5,0-160.1-29.7-218.5-83.6c-58.4-53.9-90.5-125.6-90.5-201.9c0-76.3,32.1-147.9,90.5-201.9
		c58.4-53.9,136-83.6,218.5-83.6c82.5,0,160.1,29.7,218.5,83.6c58.4,53.9,90.5,125.6,90.5,201.9c0,76.3-32.1,147.9-90.5,201.9
		C1106.6,825.8,1029,855.5,946.5,855.5z"/>
	<path d="M946.5,285c41.7,0,82.1,7.5,120.1,22.4c36.7,14.4,69.7,34.9,98.1,61.1c28.3,26.2,50.6,56.7,66.1,90.6
		c16.1,35.1,24.2,72.4,24.2,110.9s-8.2,75.8-24.2,110.9c-15.5,33.9-37.8,64.4-66.1,90.6c-28.3,26.2-61.3,46.7-98.1,61.1
		c-38,14.9-78.5,22.4-120.1,22.4s-82.1-7.5-120.1-22.4c-36.7-14.4-69.7-34.9-98.1-61.1c-28.3-26.2-50.6-56.7-66.1-90.6
		C646.2,645.8,638,608.5,638,570s8.2-75.8,24.2-110.9c15.5-33.9,37.8-64.4,66.1-90.6c28.3-26.2,61.3-46.7,98.1-61.1
		C864.4,292.5,904.8,285,946.5,285 M946.5,284C775.6,284,637,412,637,570s138.6,286,309.5,286S1256,728,1256,570
		S1117.4,284,946.5,284L946.5,284z"/>
</g>
<rect x="868.4" y="555.8" class="st1" width="25.7" height="2.7"/>
<text transform="matrix(1.0949 0 0 1 788.582 642.3965)" class="st2 st3">GN</text>
</svg>
