<?xml version="1.0" encoding="utf-8"?>
<!-- Generator: Adobe Illustrator 28.0.0, SVG Export Plug-In . SVG Version: 6.00 Build 0)  -->
<svg version="1.1" id="Layer_1" xmlns="http://www.w3.org/2000/svg" xmlns:xlink="http://www.w3.org/1999/xlink" x="0px" y="0px"
	 viewBox="0 0 558 558" style="enable-background:new 0 0 558 558;" xml:space="preserve">
<style type="text/css">
	.st0{fill:#FF0000;}
	.st1{font-family:'ErasITC-Bold';}
	.st2{font-size:239.9639px;}
	.st3{fill:none;}
	.st4{font-size:17px;}
</style>
<rect x="577.7" y="189.9" class="st3" width="52.3" height="7.3"/>
<g>
	<g>
		<path class="st0" d="M279,557.5c-74.4,0-144.3-29-196.9-81.6S0.5,353.4,0.5,279c0-74.4,29-144.3,81.6-196.9S204.6,0.5,279,0.5
			s144.3,29,196.9,81.6c52.6,52.6,81.6,122.5,81.6,196.9c0,74.4-29,144.3-81.6,196.9C423.3,528.5,353.4,557.5,279,557.5z"/>
		<path d="M279,1c37.5,0,73.9,7.4,108.2,21.8c33.1,14,62.8,34,88.4,59.6c25.5,25.5,45.6,55.3,59.6,88.4
			C549.6,205.1,557,241.5,557,279s-7.4,73.9-21.8,108.2c-14,33.1-34,62.8-59.6,88.4c-25.5,25.5-55.3,45.6-88.4,59.6
			C352.9,549.6,316.5,557,279,557s-73.9-7.4-108.2-21.8c-33.1-14-62.8-34-88.4-59.6c-25.5-25.5-45.6-55.3-59.6-88.4
			C8.4,352.9,1,316.5,1,279s7.4-73.9,21.8-108.2c14-33.1,34-62.8,59.6-88.4c25.5-25.5,55.3-45.6,88.4-59.6C205.1,8.4,241.5,1,279,1
			 M279,0C124.9,0,0,124.9,0,279s124.9,279,279,279s279-124.9,279-279S433.1,0,279,0L279,0z"/>
	</g>
	<text transform="matrix(1.5215 0 0 1 72.0085 428.0007)" class="st1 st2">SS</text>
	<g>
		<rect x="120.8" y="222.1" class="st3" width="201.4" height="37.8"/>
		<path id="Icon_awesome-mountain" d="M112.1,252.5l-49.9-77c-1.7-2.6-5.1-3.3-7.7-1.7c-0.7,0.4-1.2,1-1.7,1.7l-49.9,77
			c-1.7,2.6-0.9,6,1.7,7.6c0.9,0.6,1.9,0.9,3,0.9h99.9c3.1,0,5.5-2.5,5.5-5.5C113,254.4,112.7,253.4,112.1,252.5z M57.5,188.7
			l14.8,22.8H57.5l-11.1,11l-6.6-6.5L57.5,188.7z"/>
		<path id="Icon_awesome-mountain_00000125599562009089988550000013650943644593719461_" d="M553.4,244.4l-114-168.9
			c-3.8-5.6-11.6-7.2-17.5-3.6c-1.5,0.9-2.8,2.2-3.8,3.6L304,244.4c-3.8,5.6-2.1,13.1,3.8,16.7c2,1.2,4.4,1.9,6.8,1.9h228.1
			c7,0,12.7-5.4,12.7-12.1C555.4,248.6,554.7,246.4,553.4,244.4z M428.7,104.4l33.8,50.1h-33.8l-25.3,24.1l-15.1-14.3L428.7,104.4z"
			/>
		<path id="Icon_awesome-mountain_00000088839327437282662010000000239105536161028255_" d="M301.5,248.1l-87.7-128.9
			c-2.9-4.3-8.9-5.5-13.5-2.8c-1.2,0.7-2.2,1.7-2.9,2.8l-87.7,128.9c-2.9,4.3-1.6,10,2.9,12.7c1.6,1,3.4,1.5,5.3,1.5h175.5
			c5.4,0,9.7-4.1,9.7-9.2C303,251.3,302.5,249.6,301.5,248.1z M205.5,141.2l26,38.2h-26L186,197.8l-11.6-10.9L205.5,141.2z"/>
	</g>
	<text transform="matrix(1 0 0 1 462.1807 108.6221)" class="st1 st4">TM</text>
</g>
</svg>
